<svg xmlns="http://www.w3.org/2000/svg" version="1.1" xmlns:xlink="http://www.w3.org/1999/xlink" xmlns:svgjs="http://svgjs.dev/svgjs" width="32" height="32"><svg xmlns="http://www.w3.org/2000/svg" version="1.1" viewBox="0 0 32 32">
  <defs>
    <style>
      .cls-1 {
        fill: #fff;
      }
    </style>
  </defs>
  <!-- Generator: Adobe Illustrator 28.7.3, SVG Export Plug-In . SVG Version: 1.2.0 Build 164)  -->
  <g>
    <g id="SvgjsG1061">
      <rect width="32" height="32"></rect>
      <path class="cls-1" d="M22.7,12.9h-4.3c0-1.7-1-2.4-2.6-2.4s-2.2.6-2.2,1.5,1,1.4,3.5,2.1c2.9.8,6.1,1.5,6.1,5.5s-2.8,5.1-7.2,5.1-7.3-1.9-7.3-5.8h4.5c0,1.6,1,2.6,2.9,2.6s2.4-.6,2.4-1.6c0-1.4-1.2-1.7-3.7-2.4-2.7-.7-5.6-1.3-5.6-5.1s2.7-5,6.7-5,6.8,1.9,6.8,5.5Z"></path>
    </g>
  </g>
</svg><style>@media (prefers-color-scheme: light) { :root { filter: none; } }
@media (prefers-color-scheme: dark) { :root { filter: invert(100%); } }
</style></svg>